<?xml version="1.0" encoding="utf-8"?>
<!-- Generator: Adobe Illustrator 19.2.1, SVG Export Plug-In . SVG Version: 6.00 Build 0)  -->
<svg version="1.1" id="Layer_1" xmlns="http://www.w3.org/2000/svg" xmlns:xlink="http://www.w3.org/1999/xlink" x="0px" y="0px"
	 width="500px" height="500px" viewBox="0 0 500 500" style="enable-background:new 0 0 500 500;" xml:space="preserve">
<g>
	<g>
		<path fill="currentColor" class="st0" d="M191.8,378.6c-15.5-2.8-28.5-6.7-39.2-11.8v-62c12.3,5.6,25.7,10.1,40.4,13.6s28.3,5.2,40.8,5.2
			c14.4,0,24.7-1.3,31-3.8c6.3-2.5,9.4-7.5,9.4-15c0-4.8-1.5-8.7-4.6-11.8c-3.1-3.1-7.5-5.7-13.4-8c-5.9-2.3-15.2-5.4-28-9.4
			c-4.3-1.1-7.5-2-9.6-2.8c-17.6-5.6-31.4-11.7-41.4-18.4c-10-6.7-17.2-14.7-21.6-24.2c-4.4-9.5-6.6-21.3-6.6-35.4
			c0-25.3,9.1-44.6,27.2-57.8s44.8-19.8,80-19.8c13.6,0,27.9,1.1,43,3.4s27.5,5,37.4,8.2v62.4c-23.5-9.3-46.3-14-68.4-14
			c-14.1,0-24.7,1.1-31.8,3.2c-7.1,2.1-10.6,6.8-10.6,14c0,4.5,1.5,8.1,4.4,10.8s7.4,5,13.4,7s16.2,4.9,30.6,8.6
			c20.5,5.6,36.3,12.3,47.4,20.2s18.7,16.9,23,27c4.3,10.1,6.4,22.4,6.4,36.8c0,24-9.3,43-27.8,57s-45.8,21-81.8,21
			C223.8,382.8,207.3,381.4,191.8,378.6z"/>
	</g>
	<path fill="currentColor" class="st0" d="M250,0L33,125v250l217,125l217-125V125L250,0z M449,365L250,480L51,365V135L250,20l199,115V365z"/>
</g>
</svg>
