<?xml version="1.0" encoding="utf-8"?>
<!-- Generator: Adobe Illustrator 19.2.1, SVG Export Plug-In . SVG Version: 6.00 Build 0)  -->
<svg version="1.1" id="Layer_1" xmlns="http://www.w3.org/2000/svg" xmlns:xlink="http://www.w3.org/1999/xlink" x="0px" y="0px"
	 width="2060px" height="500px" viewBox="0 0 2060 500" style="enable-background:new 0 0 2060 500;" xml:space="preserve">
<style type="text/css">
	.st0{fill:#FFFFFF;}
</style>
<g>
	<g>
		<path class="st0" d="M161.2,378.6c-15.5-2.8-28.5-6.7-39.2-11.8v-62c12.3,5.6,25.7,10.1,40.4,13.6s28.3,5.2,40.8,5.2
			c14.4,0,24.7-1.3,31-3.8s9.4-7.5,9.4-15c0-4.8-1.5-8.7-4.6-11.8c-3.1-3.1-7.5-5.7-13.4-8s-15.2-5.4-28-9.4c-4.3-1.1-7.5-2-9.6-2.8
			c-17.6-5.6-31.4-11.7-41.4-18.4c-10-6.7-17.2-14.7-21.6-24.2c-4.4-9.5-6.6-21.3-6.6-35.4c0-25.3,9.1-44.6,27.2-57.8
			s44.8-19.8,80-19.8c13.6,0,27.9,1.1,43,3.4s27.5,5,37.4,8.2v62.4c-23.5-9.3-46.3-14-68.4-14c-14.1,0-24.7,1.1-31.8,3.2
			c-7.1,2.1-10.6,6.8-10.6,14c0,4.5,1.5,8.1,4.4,10.8s7.4,5,13.4,7s16.2,4.9,30.6,8.6c20.5,5.6,36.3,12.3,47.4,20.2s18.7,16.9,23,27
			c4.3,10.1,6.4,22.4,6.4,36.8c0,24-9.3,43-27.8,57s-45.8,21-81.8,21C193.2,382.8,176.7,381.4,161.2,378.6z"/>
	</g>
	<path class="st0" d="M219.4,0L2.4,125v250l217,125l217-125V125L219.4,0z M418.4,365l-199,115l-199-115V135l199-115l199,115V365z"/>
</g>
<g>
	<g>
		<path class="st0" d="M517.9,131.9c5.7,0,10.8,0.8,15.5,2.3c4.7,1.6,8.6,3.4,11.9,5.4v20.1c-3.5-2.1-7.3-4.1-11.3-6
			c-4-1.9-8.5-2.8-13.6-2.8c-2.5,0-5.1,0.4-7.5,1.2c-2.5,0.8-4.5,2-6.2,3.5c-1.6,1.6-2.4,3.6-2.4,6c0,3.2,1.4,5.7,4.2,7.3
			c2.8,1.7,6.3,3.3,10.4,5l12,5c6.8,2.9,11.9,6.5,15.1,10.7c3.2,4.2,4.8,9,4.8,14.4c0,5.9-1.7,11-5.1,15.5
			c-3.4,4.4-7.9,7.9-13.5,10.5c-5.6,2.5-11.8,3.8-18.7,3.8c-5.8,0-11.3-1-16.6-2.9s-9.9-4.3-13.8-7.2v-20.1c4.3,3.1,9,5.8,14.2,7.9
			c5.2,2.1,10.7,3.2,16.6,3.2c4.1,0,7.6-0.8,10.5-2.4s4.4-4,4.4-7.3c0-2.5-1.2-4.6-3.6-6.2c-2.4-1.6-5-3-7.8-4l-15.1-5.9
			c-7.6-2.9-12.8-6.8-15.5-11.5c-2.7-4.7-4-10-4-15.7c0-6,1.6-11.2,4.9-15.6c3.3-4.4,7.5-7.9,12.8-10.4S511.7,131.9,517.9,131.9z"/>
		<path class="st0" d="M614,133.1l45.7,98.9h-23.9l-7.5-18.3h-38.8l-7.5,18.3h-23.9l45.7-98.9H614z M609,166.3l-12.3,30h24.6
			L609,166.3z"/>
		<path class="st0" d="M761.7,133.8v98.9h-7.3l-58.2-59.9v59.2h-20.4v-98.9h7.3l58.2,60.8v-60.1H761.7z"/>
		<path class="st0" d="M829,131.5c10.3,0,19.4,2.1,27.2,6.3c7.8,4.2,13.9,10.1,18.2,17.6c4.3,7.5,6.5,16.4,6.5,26.5
			c0,9.7-2.1,18.4-6.2,26.3c-4.1,7.9-10,14.1-17.6,18.7c-7.6,4.6-16.7,6.9-27.2,6.9c-6.7,0-13.5-0.3-20.1-1c-6.7-0.7-13-1.6-19-2.8
			v-94.6c6.1-1,12.3-1.9,18.6-2.6C815.9,131.8,822.4,131.5,829,131.5z M829.5,150.5c-2.9,0-6,0.1-9.2,0.4s-6.2,0.7-8.9,1.2V213
			c2.9,0.6,6,1,9.2,1.2c3.2,0.2,6.2,0.4,9,0.4c6.4,0,12-1.4,16.6-4.2c4.6-2.8,8.1-6.6,10.5-11.5c2.4-4.9,3.7-10.4,3.7-16.4
			c0-6.2-1.2-11.8-3.7-16.6c-2.4-4.8-6-8.6-10.5-11.4C841.4,151.9,835.9,150.5,829.5,150.5z"/>
		<path class="st0" d="M966,173.6v16.6h-43.4v23.7h49.1v18h-69.4v-98.1h69.4v17.6h-49.1v22.3H966z"/>
		<path class="st0" d="M1037.9,133.8c4.6,0,9.1,0.6,13.5,1.9c4.4,1.3,8.4,3.2,11.9,5.9c3.6,2.6,6.4,5.9,8.5,9.9
			c2.1,4,3.1,8.7,3.1,14.1c0,5.8-1.4,10.7-4.3,14.9c-2.9,4.2-6.7,7.4-11.4,9.7c-4.7,2.3-9.8,3.6-15.2,4l35.3,37.8h-26.8l-34.1-40.1
			v40.1h-20.4v-98.1H1037.9z M1018.4,152.8v24.8c2.3,0.8,5,1.4,7.8,1.8c2.9,0.4,5.8,0.7,8.7,0.7c5.9,0,10.5-1.2,14-3.6
			c3.5-2.4,5.2-5.8,5.2-10.2c0-4.8-1.8-8.2-5.5-10.3c-3.7-2.1-8.1-3.1-13.4-3.1H1018.4z"/>
		<path class="st0" d="M1160.2,133.8v43.9l37.4-43.9h25.8l-38.5,42.9l42.9,55.2h-26.7l-30.2-39.7l-10.7,12v27.7h-20.4v-98.1H1160.2z
			"/>
		<path class="st0" d="M1308.3,173.6v16.6H1265v23.7h49.1v18h-69.4v-98.1h69.4v17.6H1265v22.3H1308.3z"/>
		<path class="st0" d="M1423.8,133.5v59.6c0,8.5-1.9,15.8-5.6,21.9c-3.8,6.1-8.8,10.8-15.2,14.1c-6.4,3.3-13.5,4.9-21.5,4.9
			s-15.1-1.6-21.5-4.9s-11.5-8-15.3-14.1c-3.8-6.1-5.6-13.4-5.6-21.9v-59.6h20.4v58.4c0,7.5,2,13.2,6.1,16.9c4.1,3.8,9.4,5.6,16,5.5
			c6.5,0,11.9-1.9,16-5.6c4.1-3.7,6.2-9.3,6.2-16.8v-58.4H1423.8z"/>
		<path class="st0" d="M1491.4,133.8c4.6,0,9.1,0.6,13.5,1.9c4.4,1.3,8.4,3.2,11.9,5.9c3.6,2.6,6.4,5.9,8.5,9.9
			c2.1,4,3.1,8.7,3.1,14.1c0,5.8-1.4,10.7-4.3,14.9c-2.9,4.2-6.7,7.4-11.4,9.7c-4.7,2.3-9.8,3.6-15.2,4l35.3,37.8h-26.8l-34.1-40.1
			v40.1h-20.4v-98.1H1491.4z M1472,152.8v24.8c2.3,0.8,5,1.4,7.8,1.8c2.9,0.4,5.8,0.7,8.7,0.7c5.9,0,10.5-1.2,14-3.6
			c3.5-2.4,5.2-5.8,5.2-10.2c0-4.8-1.8-8.2-5.5-10.3c-3.7-2.1-8.1-3.1-13.4-3.1H1472z"/>
		<path class="st0" d="M1613.2,173.6v16.6h-43.4v23.7h49.1v18h-69.4v-98.1h69.4v17.6h-49.1v22.3H1613.2z"/>
		<path class="st0" d="M1731.1,133.8v98.9h-7.3l-58.2-59.9v59.2h-20.4v-98.9h7.3l58.2,60.8v-60.1H1731.1z"/>
		<path class="st0" d="M1832.7,133.8v18.3h-31.3v79.4h-20.2v-79.4h-31.3v-18.3H1832.7z"/>
		<path class="st0" d="M1874.1,133.5v92.4c0,8.3-1.5,15.3-4.6,21c-3.1,5.7-7.3,10.4-12.7,14c-5.4,3.6-11.5,6.4-18.5,8.3l-7.8-18.3
			c15.4-4.5,23.1-12.5,23.1-24.2v-93.3H1874.1z"/>
		<path class="st0" d="M1966.3,173.6v16.6H1923v23.7h49.1v18h-69.4v-98.1h69.4v17.6H1923v22.3H1966.3z"/>
		<path class="st0" d="M2025.2,131.9c5.7,0,10.8,0.8,15.5,2.3c4.7,1.6,8.6,3.4,11.9,5.4v20.1c-3.5-2.1-7.3-4.1-11.3-6
			c-4-1.9-8.5-2.8-13.6-2.8c-2.5,0-5.1,0.4-7.5,1.2c-2.5,0.8-4.5,2-6.2,3.5c-1.6,1.6-2.4,3.6-2.4,6c0,3.2,1.4,5.7,4.2,7.3
			c2.8,1.7,6.3,3.3,10.4,5l12,5c6.8,2.9,11.9,6.5,15.1,10.7c3.2,4.2,4.8,9,4.8,14.4c0,5.9-1.7,11-5.1,15.5
			c-3.4,4.4-7.9,7.9-13.5,10.5c-5.6,2.5-11.8,3.8-18.7,3.8c-5.8,0-11.3-1-16.6-2.9s-9.9-4.3-13.8-7.2v-20.1c4.3,3.1,9,5.8,14.2,7.9
			c5.2,2.1,10.7,3.2,16.6,3.2c4.1,0,7.6-0.8,10.5-2.4s4.4-4,4.4-7.3c0-2.5-1.2-4.6-3.6-6.2c-2.4-1.6-5-3-7.8-4l-15.1-5.9
			c-7.6-2.9-12.8-6.8-15.5-11.5c-2.7-4.7-4-10-4-15.7c0-6,1.6-11.2,4.9-15.6c3.3-4.4,7.5-7.9,12.8-10.4S2019.1,131.9,2025.2,131.9z"
			/>
	</g>
	<g>
		<path class="st0" d="M528.9,326v9.1h-30.9v29.6h-9.7v-72h47.1v9.1h-37.4V326H528.9z"/>
		<path class="st0" d="M584.1,292.8c4.2,0,8.1,0.8,11.9,2.3c3.8,1.5,6.9,3.9,9.4,7.1c2.5,3.2,3.7,7.3,3.7,12.2
			c0,4.4-1.3,8.2-3.8,11.3c-2.5,3.1-5.8,5.4-9.7,6.9c-3.9,1.5-7.9,2.3-12.1,2.3c-1.3,0-3-0.1-5.2-0.2l33.5,30.1h-14.8l-30.9-30.1
			v30.1h-9.7v-72H584.1z M566.1,301.9V325c2.4,0.6,4.9,1.1,7.7,1.5c2.8,0.4,5.5,0.5,8.3,0.5c5.4,0,9.6-1.1,12.6-3.4
			c3-2.3,4.5-5.4,4.5-9.2c0-4-1.6-7.1-4.9-9.2c-3.3-2.1-7.2-3.2-11.9-3.2H566.1z"/>
		<path class="st0" d="M650.9,291.2c5.4,0,10.5,1,15,3c4.6,2,8.6,4.7,12,8.1s6.1,7.4,8,12c1.9,4.5,2.8,9.4,2.8,14.6s-1,10-2.8,14.6
			c-1.9,4.5-4.6,8.5-8,12s-7.4,6.1-12,8.1c-4.6,2-9.6,3-15,3c-5.4,0-10.5-1-15-3c-4.6-2-8.6-4.7-12-8.1s-6.1-7.4-8-12
			c-1.9-4.5-2.8-9.4-2.8-14.6s0.9-10,2.8-14.6c1.9-4.5,4.6-8.5,8-12s7.4-6.1,12-8.1C640.4,292.1,645.5,291.2,650.9,291.2z
			 M650.9,300.6c-5.4,0-10.2,1.2-14.4,3.7c-4.2,2.4-7.6,5.8-10,10c-2.4,4.3-3.7,9.1-3.7,14.4s1.2,10.2,3.7,14.4
			c2.4,4.2,5.8,7.6,10,10c4.2,2.5,9,3.7,14.4,3.7s10.2-1.2,14.4-3.7c4.2-2.5,7.6-5.8,10-10c2.4-4.2,3.7-9,3.7-14.4
			s-1.2-10.2-3.7-14.4c-2.4-4.3-5.8-7.6-10-10C661.1,301.8,656.3,300.6,650.9,300.6z"/>
		<path class="st0" d="M766.1,292.8v72h-3.7l-46.7-51.5v51.5H706v-72h3.7l46.7,52.1v-52.1H766.1z"/>
		<path class="st0" d="M840.4,292.8v9.1h-24.8v62.5h-9.7v-62.5h-24.8v-9.1H840.4z"/>
		<path class="st0" d="M882.3,332.7v9.7H850v-9.7H882.3z"/>
		<path class="st0" d="M945.2,323.3v9.1h-35v23.2h39.6v9.1h-49.3v-72h49.3v9.1h-39.6v21.4H945.2z"/>
		<path class="st0" d="M1030.3,292.8v72h-3.7l-46.7-51.5v51.5h-9.7v-72h3.7l46.7,52.1v-52.1H1030.3z"/>
		<path class="st0" d="M1080.4,291c8.1,0,14.9,1.6,20.6,4.9c5.6,3.3,9.9,7.8,12.9,13.4c3,5.6,4.5,12,4.5,19.1s-1.5,13.4-4.5,19.1
			c-3,5.6-7.3,10.1-12.9,13.4c-5.6,3.3-12.5,4.9-20.6,4.9c-4.9,0-9.5-0.3-13.6-0.8c-4.2-0.5-8.4-1.1-12.8-1.9v-69.4
			c4.4-0.8,8.6-1.4,12.8-1.9C1070.9,291.3,1075.4,291,1080.4,291z M1080.4,300.2c-2.6,0-5.3,0.1-8.3,0.3c-2.9,0.2-5.8,0.4-8.5,0.8
			v54.4c2.7,0.3,5.5,0.5,8.5,0.8c2.9,0.2,5.7,0.3,8.3,0.3c5.8,0,10.8-1.2,15-3.7s7.4-5.8,9.7-10.1c2.3-4.3,3.4-9.1,3.4-14.4
			s-1.1-10.2-3.4-14.4c-2.3-4.3-5.5-7.6-9.7-10.1S1086.2,300.2,1080.4,300.2z"/>
		<path class="st0" d="M1256.2,292.8l-25.2,72h-5.5l-19.3-54.5l-19.6,54.5h-5.5l-24.2-72h10.5l16.9,53.5l19-53.5l6.2,0.1l18.5,53.4
			l17.6-53.5H1256.2z"/>
		<path class="st0" d="M1313.8,323.3v9.1h-35v23.2h39.6v9.1h-49.3v-72h49.3v9.1h-39.6v21.4H1313.8z"/>
		<path class="st0" d="M1364.2,291c5.3,0,9.9,0.9,13.8,2.6c3.9,1.8,6.9,4.1,9.1,7.1s3.2,6.5,3.2,10.4c0,3.5-1,6.7-3,9.6
			c-2,2.9-4.5,5.1-7.5,6.5c2.1,0.4,4.3,1.3,6.3,2.7c2.1,1.4,3.8,3.2,5.2,5.6s2.1,5.3,2.1,8.8c0,4-1.1,7.6-3.4,10.8
			c-2.3,3.2-5.6,5.8-9.8,7.7c-4.3,1.9-9.3,2.8-15.1,2.8c-4.4,0-9.1-0.3-13.9-0.8s-8.9-1.2-12.3-1.9v-69.4c3.7-0.9,7.8-1.5,12.2-2
			C1355.4,291.3,1359.8,291,1364.2,291z M1363.5,300.2c-3,0-5.7,0.1-8.1,0.3c-2.4,0.2-4.7,0.5-6.9,1V324h16.9
			c4.9,0,8.6-1.2,11.2-3.7s3.9-5.4,3.9-8.6c0-2.6-0.8-4.7-2.4-6.4c-1.6-1.7-3.6-3-6.2-3.8C1369.3,300.6,1366.5,300.2,1363.5,300.2z
			 M1348.5,355.4c2.6,0.5,5.4,0.8,8.6,1c3.2,0.2,5.7,0.3,7.7,0.3c5.4,0,9.8-1.1,13.4-3.3c3.5-2.2,5.3-5.2,5.3-8.9
			c0-3.9-1.7-6.9-5.2-8.9c-3.5-2-7.7-3-12.7-3h-17.1V355.4z"/>
		<path class="st0" d="M1438.8,291c8.1,0,14.9,1.6,20.6,4.9c5.6,3.3,9.9,7.8,12.9,13.4c3,5.6,4.5,12,4.5,19.1s-1.5,13.4-4.5,19.1
			c-3,5.6-7.3,10.1-12.9,13.4c-5.6,3.3-12.5,4.9-20.6,4.9c-4.9,0-9.5-0.3-13.6-0.8c-4.2-0.5-8.4-1.1-12.8-1.9v-69.4
			c4.4-0.8,8.6-1.4,12.8-1.9C1429.3,291.3,1433.9,291,1438.8,291z M1438.8,300.2c-2.6,0-5.3,0.1-8.3,0.3c-2.9,0.2-5.8,0.4-8.5,0.8
			v54.4c2.7,0.3,5.5,0.5,8.5,0.8c2.9,0.2,5.7,0.3,8.3,0.3c5.8,0,10.8-1.2,15-3.7s7.4-5.8,9.7-10.1c2.3-4.3,3.4-9.1,3.4-14.4
			s-1.1-10.2-3.4-14.4c-2.3-4.3-5.5-7.6-9.7-10.1S1444.6,300.2,1438.8,300.2z"/>
		<path class="st0" d="M1538.6,323.3v9.1h-35v23.2h39.6v9.1h-49.3v-72h49.3v9.1h-39.6v21.4H1538.6z"/>
		<path class="st0" d="M1625,292.8l-33.6,72h-4.8l-33.6-72h11.6l24.3,55.6l24.6-55.6H1625z"/>
		<path class="st0" d="M1682.6,323.3v9.1h-35v23.2h39.6v9.1h-49.3v-72h49.3v9.1h-39.6v21.4H1682.6z"/>
		<path class="st0" d="M1717.3,292.8v62.8h39.6v9.1h-49.3v-72H1717.3z"/>
		<path class="st0" d="M1807.4,291.2c5.4,0,10.5,1,15,3c4.6,2,8.6,4.7,12,8.1s6.1,7.4,8,12c1.9,4.5,2.8,9.4,2.8,14.6s-1,10-2.8,14.6
			c-1.9,4.5-4.6,8.5-8,12s-7.4,6.1-12,8.1c-4.6,2-9.6,3-15,3c-5.4,0-10.5-1-15-3c-4.6-2-8.6-4.7-12-8.1s-6.1-7.4-8-12
			c-1.9-4.5-2.8-9.4-2.8-14.6s0.9-10,2.8-14.6c1.9-4.5,4.6-8.5,8-12s7.4-6.1,12-8.1C1796.9,292.1,1802,291.2,1807.4,291.2z
			 M1807.4,300.6c-5.4,0-10.2,1.2-14.4,3.7c-4.2,2.4-7.6,5.8-10,10c-2.4,4.3-3.7,9.1-3.7,14.4s1.2,10.2,3.7,14.4
			c2.4,4.2,5.8,7.6,10,10c4.2,2.5,9,3.7,14.4,3.7s10.2-1.2,14.4-3.7c4.2-2.5,7.6-5.8,10-10c2.4-4.2,3.7-9,3.7-14.4
			s-1.2-10.2-3.7-14.4c-2.4-4.3-5.8-7.6-10-10C1817.6,301.8,1812.8,300.6,1807.4,300.6z"/>
		<path class="st0" d="M1891.2,292.8c4.2,0,8.1,1,11.9,2.8c3.8,1.9,6.9,4.6,9.4,8.2s3.7,7.8,3.7,12.7c0,4.2-1.2,8.1-3.5,11.7
			c-2.4,3.6-5.6,6.5-9.6,8.6c-4,2.2-8.5,3.3-13.5,3.3c-3.7,0-7-0.4-10-1.1c-3-0.8-5.5-1.6-7.4-2.4v28.1h-9.7v-72H1891.2z
			 M1872.2,301.9v25.9c1.9,0.8,4.5,1.5,7.6,2.2c3.1,0.7,6.3,1,9.5,1c5.4,0,9.6-1.4,12.6-4.2c3-2.8,4.5-6.2,4.5-10.3
			c0-3.1-0.8-5.7-2.5-7.8c-1.7-2.1-3.9-3.8-6.6-5c-2.7-1.2-5.6-1.8-8.7-1.8H1872.2z"/>
		<path class="st0" d="M1978.1,323.3v9.1h-35v23.2h39.6v9.1h-49.3v-72h49.3v9.1h-39.6v21.4H1978.1z"/>
		<path class="st0" d="M2030.7,292.8c4.2,0,8.1,0.8,11.9,2.3c3.8,1.5,6.9,3.9,9.4,7.1c2.5,3.2,3.7,7.3,3.7,12.2
			c0,4.4-1.3,8.2-3.8,11.3c-2.5,3.1-5.8,5.4-9.7,6.9c-3.9,1.5-7.9,2.3-12.1,2.3c-1.3,0-3-0.1-5.2-0.2l33.5,30.1h-14.8l-30.9-30.1
			v30.1h-9.7v-72H2030.7z M2012.8,301.9V325c2.4,0.6,4.9,1.1,7.7,1.5c2.8,0.4,5.5,0.5,8.3,0.5c5.4,0,9.6-1.1,12.6-3.4
			c3-2.3,4.5-5.4,4.5-9.2c0-4-1.6-7.1-4.9-9.2c-3.3-2.1-7.2-3.2-11.9-3.2H2012.8z"/>
	</g>
</g>
</svg>
